,
  Hottest scene tracker on the net !!!   http://www.scenetime.com
 
         Please seed back after your download is completed

           Credit goes  to all seeders and  http://www.scenetime.com
 



...................................NFO:.................................................
                                                     
                                                   
                                                         
                                                          
                                                           
                                                          
                                                          
                                                          
                                                           
                                                         
                                                          
                                                        
                                                      
                                     
                                                 
                                                   
                                             
                                              
                                                     
                                                      
                                                      
                                                      
                                                    
                                                     
                                                   
                                                     
                                                     
                                                      
                                                     
                                                      
                                                    
                 ARTiCHOKE                        
                                                
                      
                                                        
                                                      
                                                      
                                               
                                          
                                                   
                                            
                                                    
                                                       
                                                        
                                                      
                                                
                                                        
                                                 
                                              
                                                  
                                                
                                                  
                                        

      
                                
      SPRiNTER proudly presents...     
                                
      
 
Springfield.Rifle.1952.DVDRip.XViD-SPRiNTER
http://www.imdb.com/title/tt0045184/


Date: 2010.12
Genre: Western | War


Plot: Major Lex Kearny becomes the North's first counterespionage agent as he tries to discover who's behind the theft of 
	Union cavalry horses in Colorado during the Civil War. 



  	Gary Cooper  ...  Maj. Alex 'Lex' Kearney  
  	Phyllis Thaxter  ...  Erin Kearney  
  	David Brian  ...  Austin McCool, Raider Leader  
  	Paul Kelly  ...  Lt. Col John Hudson (Ft. Hedley CO)  
  	Lon Chaney Jr.  ...  Pete Elm, Leader of Non-military Raiders (as Lon Chaney)  
  	Philip Carey  ...  Capt. Edward Tennick  
  	James Millican  ...  Det. Matthew Quint    



      
                 
      Release notes     
                 
      

     Enjoy...


      
           
     Greetings    
           
      


NTX aAF FiCO HNR CiNEFiLE AEN HUMANiSM SSF


      
           
      Details     
           
      


Format                           : AVI
Format/Info                      : Audio Video Interleave
File size                        : 700 MiB
Duration                         : 1h 32mn
Overall bit rate                 : 1 055 Kbps
Writing application              : Nandub v1.0rc2
Writing library                  : Nandub build 1852/release

Video
ID                               : 0
Format                           : MPEG-4 Visual
Format profile                   : AdvancedSimple@L5
Format settings, BVOP            : Yes
Format settings, QPel            : No
Format settings, GMC             : No warppoints
Format settings, Matrix          : Default (H.263)
Codec ID                         : XVID
Codec ID/Hint                    : XviD
Duration                         : 1h 32mn
Bit rate                         : 987 Kbps
Width                            : 512 pixels
Height                           : 384 pixels
Display aspect ratio             : 4:3
Frame rate                       : 23.976 fps
Resolution                       : 24 bits
Colorimetry                      : 4:2:0
Scan type                        : Progressive
Bits/(Pixel*Frame)               : 0.209
Stream size                      : 655 MiB (94%)
Writing library                  : XviD 1.2.1 (UTC 2008-12-04)

Audio
ID                               : 1
Format                           : MPEG Audio
Format version                   : Version 1
Format profile                   : Layer 3
Codec ID                         : 55
Codec ID/Hint                    : MP3
Duration                         : 1h 32mn
Bit rate mode                    : Variable
Bit rate                         : 55.0 Kbps
Channel(s)                       : 1 channel
Sampling rate                    : 48.0 KHz
Resolution                       : 16 bits
Stream size                      : 36.5 MiB (5%)
Alignment                        : Aligned on interleaves
Interleave, duration             : 24 ms (0.58 video frame)
Interleave, preload duration     : 387 ms
Writing library                  : LAME3.89 (alpha)